# xmcd
#
# Track frame offsets: 
#        150
#        15251
#        30043
#        42699
#        61637
#        75720
#        90031
#        105733
#        122157
#        135540
#
# Disc length: 1945 seconds
#
# Revision: 1
# Processed by: cddbd v1.5.1PL2 Copyright (c) Steve Scherf et al.
# Submitted via: ExactAudioCopy v0.90b4
#
DISCID=6607970a
DTITLE=Merle Haggard - Cabin In The Hills
DYEAR=1900
DGENRE=
TTITLE0=Life's Railway To Heaven
TTITLE1=A Cabin In The Hills
TTITLE2=What Will It Be Like
TTITLE3=Farther Along
TTITLE4=Precious Lord Take My Hand
TTITLE5=Apart For A While
TTITLE6=Love Lifted Me
TTITLE7=Shores Of Jordan
TTITLE8=Lord Don't Give Up On Me
TTITLE9=This World Is Not My Home (Duet)
EXTD=
EXTT0=
EXTT1=
EXTT2=
EXTT3=
EXTT4=
EXTT5=
EXTT6=
EXTT7=
EXTT8=
EXTT9=
PLAYORDER=
